<svg width="21" height="18" viewBox="0 0 21 18" fill="none" xmlns="http://www.w3.org/2000/svg">
<path d="M19.4379 9C19.4379 13.347 15.5621 16.875 10.777 16.875C5.99178 16.875 2.116 13.347 2.116 9C2.116 4.64906 5.99178 1.125 10.777 1.125C15.5621 1.125 19.4379 4.64906 19.4379 9Z" fill="#283544"/>
<path d="M14.8365 7.00728C14.7893 7.03235 13.6642 7.5614 13.6642 8.73442C13.7172 10.0722 15.084 10.5413 15.1074 10.5413C15.084 10.5664 14.9011 11.1804 14.3593 11.8241C13.9293 12.3785 13.4521 12.9375 12.7274 12.9375C12.038 12.9375 11.7906 12.568 10.9952 12.568C10.141 12.568 9.89932 12.9375 9.24532 12.9375C8.52063 12.9375 8.00804 12.3485 7.55463 11.7993C6.96557 11.0805 6.46489 9.95237 6.44722 8.8692C6.43531 8.29523 6.56518 7.73102 6.89487 7.25178C7.3602 6.58274 8.19094 6.12857 9.09816 6.1136C9.79326 6.09374 10.4119 6.51795 10.8361 6.51795C11.2427 6.51795 12.0027 6.1136 12.8626 6.1136C13.2338 6.11392 14.2237 6.20866 14.8365 7.00728ZM10.7773 5.999C10.6536 5.47483 10.9952 4.95067 11.3134 4.61631C11.7199 4.21195 12.362 3.9375 12.9157 3.9375C12.951 4.46166 12.727 4.97574 12.3266 5.35014C11.9673 5.75449 11.3487 6.0589 10.7773 5.999Z" fill="white"/>
</svg>
