<svg width="349" height="145" viewBox="0 0 349 145" fill="none" xmlns="http://www.w3.org/2000/svg">
<path opacity="0.4" d="M0.638489 143H-0.498436V144.137H0.638489V143ZM0.638489 2.43468V1.29775H-0.498436V2.43468H0.638489ZM85.6778 6.89598L85.2381 7.94445L85.2405 7.94545L85.6778 6.89598ZM101.738 19.3876L100.792 20.0183L100.796 20.0238L101.738 19.3876ZM103.798 52.3326L104.799 52.8716L104.801 52.8671L103.798 52.3326ZM94.5317 62.6966L93.8812 61.7641L94.5317 62.6966ZM80.8733 68.4619L80.6371 67.3498L79.7364 67.5411V68.4619H80.8733ZM80.8733 69.8346H79.7364V70.9179L80.8183 70.9702L80.8733 69.8346ZM96.5908 74.4332L96.0197 75.4163L96.0237 75.4186L96.5908 74.4332ZM108.259 86.1012L107.278 86.6769L107.281 86.6808L108.259 86.1012ZM106.886 123.919L107.839 124.54L107.841 124.536L106.886 123.919ZM90.2077 137.921L90.6874 138.952L90.6927 138.949L90.2077 137.921ZM34.613 115.614H33.4761V116.751H34.613V115.614ZM71.882 111.428L71.176 110.537L71.1704 110.541L71.882 111.428ZM74.6275 90.4253L73.6689 91.0368L73.6738 91.0443L74.6275 90.4253ZM67.4207 84.3167L66.9366 85.3455L66.9491 85.3512L67.4207 84.3167ZM34.613 82.1204V80.9835H33.4761V82.1204H34.613ZM34.613 60.2257H33.4761V61.3626H34.613V60.2257ZM70.0289 53.019L69.1001 52.3633L69.0957 52.3695L69.0915 52.3757L70.0289 53.019ZM67.4894 33.4579L68.204 32.5737L67.4894 33.4579ZM34.613 29.4084V28.2715H33.4761V29.4084H34.613ZM1.77541 143V2.43468H-0.498436V143H1.77541ZM0.638489 3.5716H59.2531V1.29775H0.638489V3.5716ZM59.2531 3.5716C69.6784 3.5716 78.3261 5.04588 85.2381 7.94444L86.1174 5.84751C78.8447 2.79767 69.8761 1.29775 59.2531 1.29775V3.5716ZM85.2405 7.94545C92.2138 10.851 97.3712 14.8864 100.792 20.0183L102.684 18.757C98.9676 13.1818 93.4179 8.88936 86.115 5.84651L85.2405 7.94545ZM100.796 20.0238C104.273 25.1724 106.024 31.1465 106.024 37.9878H108.298C108.298 30.736 106.434 24.31 102.681 18.7514L100.796 20.0238ZM106.024 37.9878C106.024 43.1781 104.938 47.7723 102.794 51.7982L104.801 52.8671C107.141 48.4736 108.298 43.5046 108.298 37.9878H106.024ZM102.796 51.7936C100.64 55.7984 97.6725 59.1191 93.8812 61.7641L95.1823 63.629C99.2612 60.7832 102.471 57.1946 104.799 52.8716L102.796 51.7936ZM93.8812 61.7641C90.0829 64.4141 85.6741 66.28 80.6371 67.3498L81.1095 69.5741C86.4136 68.4475 91.1103 66.4699 95.1823 63.629L93.8812 61.7641ZM79.7364 68.4619V69.8346H82.0102V68.4619H79.7364ZM80.8183 70.9702C86.3146 71.2362 91.3762 72.7186 96.0197 75.4163L97.1619 73.4502C92.1965 70.5655 86.7797 68.9822 80.9282 68.6991L80.8183 70.9702ZM96.0237 75.4186C100.697 78.108 104.446 81.8536 107.278 86.6769L109.239 85.5256C106.214 80.3739 102.185 76.3408 97.1579 73.4478L96.0237 75.4186ZM107.281 86.6808C110.088 91.418 111.515 97.067 111.515 103.672H113.788C113.788 96.7327 112.287 90.668 109.237 85.5216L107.281 86.6808ZM111.515 103.672C111.515 111.018 109.648 117.55 105.931 123.302L107.841 124.536C111.811 118.392 113.788 111.426 113.788 103.672H111.515ZM105.933 123.299C102.22 129.001 96.835 133.538 89.7227 136.893L90.6927 138.949C98.1311 135.441 103.865 130.643 107.839 124.54L105.933 123.299ZM89.728 136.89C82.6403 140.189 73.9824 141.863 63.7144 141.863V144.137C74.2201 144.137 83.2244 142.425 90.6874 138.952L89.728 136.89ZM63.7144 141.863H0.638489V144.137H63.7144V141.863ZM34.613 116.751H55.6155V114.478H34.613V116.751ZM55.6155 116.751C63.0857 116.751 68.8196 115.344 72.5937 112.314L71.1704 110.541C67.9894 113.094 62.879 114.478 55.6155 114.478V116.751ZM72.588 112.319C76.4158 109.286 78.3039 105.051 78.3039 99.7597H76.0301C76.0301 104.443 74.3948 107.987 71.1761 110.537L72.588 112.319ZM78.3039 99.7597C78.3039 95.9617 77.4122 92.6271 75.5811 89.8063L73.6738 91.0443C75.2288 93.4398 76.0301 96.3281 76.0301 99.7597H78.3039ZM75.586 89.8138C73.7647 86.9589 71.1856 84.7836 67.8923 83.2822L66.9491 85.3512C69.8788 86.6868 72.1042 88.5839 73.669 91.0367L75.586 89.8138ZM67.9048 83.288C64.6074 81.7363 60.7046 80.9835 56.2332 80.9835V83.2573C60.4556 83.2573 64.0111 83.9687 66.9366 85.3454L67.9048 83.288ZM56.2332 80.9835H34.613V83.2573H56.2332V80.9835ZM33.4761 82.1204V115.614H35.7499V82.1204H33.4761ZM34.613 61.3626H53.4191V59.0888H34.613V61.3626ZM53.4191 61.3626C57.2518 61.3626 60.703 60.7236 63.7505 59.4175L62.8548 57.3275C60.1369 58.4923 56.999 59.0888 53.4191 59.0888V61.3626ZM63.7505 59.4175C66.809 58.1068 69.23 56.1923 70.9663 53.6623L69.0915 52.3757C67.6248 54.5129 65.5616 56.1674 62.8548 57.3275L63.7505 59.4175ZM70.9577 53.6746C72.7604 51.1209 73.6367 48.0689 73.6367 44.5768H71.3628C71.3628 47.6737 70.5919 50.2499 69.1001 52.3633L70.9577 53.6746ZM73.6367 44.5768C73.6367 39.5586 71.8396 35.512 68.204 32.5737L66.7747 34.3421C69.8196 36.8031 71.3628 40.1691 71.3628 44.5768H73.6367ZM68.204 32.5737C64.6046 29.6645 59.8182 28.2715 53.9682 28.2715V30.5453C59.4659 30.5453 63.6936 31.8519 66.7747 34.3421L68.204 32.5737ZM53.9682 28.2715H34.613V30.5453H53.9682V28.2715ZM33.4761 29.4084V60.2257H35.7499V29.4084H33.4761ZM223.69 2.43468V1.29775H222.553V2.43468H223.69ZM257.596 2.43468H258.733V1.29775H257.596V2.43468ZM250.114 120.488L251.07 121.104L251.072 121.101L250.114 120.488ZM229.249 138.47L229.734 139.498L229.739 139.496L229.249 138.47ZM166.86 138.47L166.37 139.496L166.375 139.498L166.86 138.47ZM146.063 120.488L145.104 121.097L145.105 121.1L146.063 120.488ZM138.651 2.43468V1.29775H137.514V2.43468H138.651ZM172.625 2.43468H173.762V1.29775H172.625V2.43468ZM175.782 103.123L174.788 103.674L174.793 103.683L175.782 103.123ZM184.774 112.045L185.329 111.053L184.774 112.045ZM211.473 112.045L210.918 111.053L210.913 111.056L211.473 112.045ZM223.69 3.5716H257.596V1.29775H223.69V3.5716ZM256.459 2.43468V93.1021H258.733V2.43468H256.459ZM256.459 93.1021C256.459 103.393 254.012 112.302 249.157 119.874L251.072 121.101C256.192 113.116 258.733 103.768 258.733 93.1021H256.459ZM249.159 119.871C244.294 127.414 237.507 133.272 228.76 137.444L229.739 139.496C238.837 135.157 245.96 129.027 251.07 121.104L249.159 119.871ZM228.764 137.442C220.02 141.567 209.828 143.648 198.157 143.648V145.921C210.098 145.921 220.633 143.792 229.734 139.498L228.764 137.442ZM198.157 143.648C186.348 143.648 176.087 141.566 167.345 137.442L166.375 139.498C175.477 143.793 186.082 145.921 198.157 145.921V143.648ZM167.349 137.444C158.603 133.273 151.84 127.415 147.021 119.875L145.105 121.1C150.17 129.026 157.271 135.157 166.37 139.496L167.349 137.444ZM147.023 119.878C142.212 112.306 139.788 103.395 139.788 93.1021H137.514C137.514 103.766 140.031 113.112 145.104 121.097L147.023 119.878ZM139.788 93.1021V2.43468H137.514V93.1021H139.788ZM138.651 3.5716H172.625V1.29775H138.651V3.5716ZM171.488 2.43468V90.1507H173.762V2.43468H171.488ZM171.488 90.1507C171.488 95.1708 172.579 99.6884 174.788 103.674L176.777 102.572C174.776 98.9616 173.762 94.8311 173.762 90.1507H171.488ZM174.793 103.683C177.047 107.664 180.195 110.786 184.218 113.038L185.329 111.053C181.665 109.003 178.819 106.178 176.772 102.563L174.793 103.683ZM184.218 113.038C188.256 115.297 192.914 116.408 198.157 116.408V114.134C193.243 114.134 188.978 113.095 185.329 111.053L184.218 113.038ZM198.157 116.408C203.4 116.408 208.038 115.297 212.033 113.035L210.913 111.056C207.312 113.095 203.073 114.134 198.157 114.134V116.408ZM212.028 113.038C216.051 110.786 219.199 107.664 221.453 103.683L219.475 102.563C217.428 106.178 214.581 109.003 210.918 111.053L212.028 113.038ZM221.453 103.683C223.711 99.6959 224.827 95.175 224.827 90.1507H222.553C222.553 94.827 221.518 98.9541 219.475 102.563L221.453 103.683ZM224.827 90.1507V2.43468H222.553V90.1507H224.827ZM322.528 2.43468H323.665V1.29775H322.528V2.43468ZM322.528 143V144.137H323.665V143H322.528ZM288.554 143H287.417V144.137H288.554V143ZM288.554 2.43468V1.29775H287.417V2.43468H288.554ZM321.391 2.43468V143H323.665V2.43468H321.391ZM322.528 141.863H288.554V144.137H322.528V141.863ZM289.691 143V2.43468H287.417V143H289.691ZM288.554 3.5716H322.528V1.29775H288.554V3.5716ZM353.521 143H352.384V144.137H353.521V143ZM353.521 2.43468V1.29775H352.384V2.43468H353.521ZM387.495 2.43468H388.632V1.29775H387.495V2.43468ZM387.495 115.409H386.358V116.545H387.495V115.409ZM445.973 115.409H447.109V114.272H445.973V115.409ZM445.973 143V144.137H447.109V143H445.973ZM354.658 143V2.43468H352.384V143H354.658ZM353.521 3.5716H387.495V1.29775H353.521V3.5716ZM386.358 2.43468V115.409H388.632V2.43468H386.358ZM387.495 116.545H445.973V114.272H387.495V116.545ZM444.836 115.409V143H447.109V115.409H444.836ZM445.973 141.863H353.521V144.137H445.973V141.863ZM473.224 143H472.087V144.137H473.224V143ZM473.224 2.43468V1.29775H472.087V2.43468H473.224ZM562.107 10.8768L561.564 11.8755L561.569 11.8783L562.107 10.8768ZM586.129 35.0365L585.127 35.5727L585.128 35.5745L586.129 35.0365ZM586.129 110.398L585.127 109.862L585.125 109.865L586.129 110.398ZM562.176 134.626L562.714 135.628L562.717 135.626L562.176 134.626ZM507.199 114.036H506.062V115.173H507.199V114.036ZM543.85 110.055L544.348 111.077L544.352 111.075L543.85 110.055ZM556.273 96.9456L555.243 96.4653L555.241 96.4687L556.273 96.9456ZM556.273 48.489L555.244 48.9724L555.245 48.9754L556.273 48.489ZM543.713 35.4483L543.211 36.4686L543.221 36.4735L543.713 35.4483ZM507.199 31.3988V30.2619H506.062V31.3988H507.199ZM525.181 141.863H473.224V144.137H525.181V141.863ZM474.361 143V2.43468H472.087V143H474.361ZM473.224 3.5716H525.113V1.29775H473.224V3.5716ZM525.113 3.5716C539.285 3.5716 551.422 6.35578 561.564 11.8754L562.651 9.87823C552.11 4.14169 539.584 1.29775 525.113 1.29775V3.5716ZM561.569 11.8783C571.756 17.3533 579.603 25.2435 585.127 35.5727L587.132 34.5003C581.4 23.7813 573.232 15.5651 562.645 9.87538L561.569 11.8783ZM585.128 35.5745C590.649 45.8539 593.435 58.1978 593.435 72.6487H595.708C595.708 57.9066 592.866 45.1758 587.131 34.4985L585.128 35.5745ZM593.435 72.6487C593.435 87.1458 590.649 99.5363 585.127 109.862L587.132 110.934C592.866 100.212 595.708 87.4361 595.708 72.6487H593.435ZM585.125 109.865C579.647 120.194 571.822 128.106 561.634 133.627L562.717 135.626C573.303 129.89 581.448 121.651 587.134 110.931L585.125 109.865ZM561.637 133.625C551.448 139.102 539.309 141.863 525.181 141.863V144.137C539.606 144.137 552.13 141.316 562.714 135.628L561.637 133.625ZM507.199 115.173H523.877V112.899H507.199V115.173ZM523.877 115.173C531.87 115.173 538.709 113.826 544.348 111.077L543.352 109.033C538.101 111.592 531.624 112.899 523.877 112.899V115.173ZM544.352 111.075C550.097 108.25 554.415 103.677 557.305 97.4226L555.241 96.4687C552.549 102.294 548.584 106.46 543.348 109.035L544.352 111.075ZM557.303 97.426C560.237 91.1333 561.665 82.8505 561.665 72.6487H559.391C559.391 82.6714 557.983 90.5866 555.243 96.4653L557.303 97.426ZM561.665 72.6487C561.665 62.4482 560.237 54.2076 557.301 48.0027L555.245 48.9754C557.983 54.7588 559.391 62.6246 559.391 72.6487H561.665ZM557.302 48.0057C554.364 41.7506 549.998 37.2004 544.204 34.4231L543.221 36.4735C548.501 39.0041 552.508 43.1476 555.244 48.9724L557.302 48.0057ZM544.214 34.428C538.526 31.6313 531.571 30.2619 523.397 30.2619V32.5357C531.329 32.5357 537.918 33.866 543.211 36.4686L544.214 34.428ZM523.397 30.2619H507.199V32.5357H523.397V30.2619ZM506.062 31.3988V114.036H508.336V31.3988H506.062ZM658.046 2.43468H659.183V1.29775H658.046V2.43468ZM658.046 143V144.137H659.183V143H658.046ZM624.071 143H622.934V144.137H624.071V143ZM624.071 2.43468V1.29775H622.934V2.43468H624.071ZM656.909 2.43468V143H659.183V2.43468H656.909ZM658.046 141.863H624.071V144.137H658.046V141.863ZM625.208 143V2.43468H622.934V143H625.208ZM624.071 3.5716H658.046V1.29775H624.071V3.5716ZM808.669 2.43468H809.806V1.29775H808.669V2.43468ZM808.669 143V144.137H809.806V143H808.669ZM779.843 143L778.907 143.645L779.246 144.137H779.843V143ZM723.905 61.8729L724.841 61.2276L724.502 60.736H723.905V61.8729ZM723.013 61.8729V60.736H721.876V61.8729H723.013ZM723.013 143V144.137H724.149V143H723.013ZM689.038 143H687.901V144.137H689.038V143ZM689.038 2.43468V1.29775H687.901V2.43468H689.038ZM718.277 2.43468L719.215 1.79342L718.877 1.29775H718.277V2.43468ZM773.597 83.4245L772.658 84.0657L772.997 84.5614H773.597V83.4245ZM774.764 83.4245V84.5614H775.901V83.4245H774.764ZM774.764 2.43468V1.29775H773.627V2.43468H774.764ZM807.533 2.43468V143H809.806V2.43468H807.533ZM808.669 141.863H779.843V144.137H808.669V141.863ZM780.779 142.355L724.841 61.2276L722.969 62.5183L778.907 143.645L780.779 142.355ZM723.905 60.736H723.013V63.0099H723.905V60.736ZM721.876 61.8729V143H724.149V61.8729H721.876ZM723.013 141.863H689.038V144.137H723.013V141.863ZM690.175 143V2.43468H687.901V143H690.175ZM689.038 3.5716H718.277V1.29775H689.038V3.5716ZM717.338 3.07594L772.658 84.0657L774.536 82.7832L719.215 1.79342L717.338 3.07594ZM773.597 84.5614H774.764V82.2875H773.597V84.5614ZM775.901 83.4245V2.43468H773.627V83.4245H775.901ZM774.764 3.5716H808.669V1.29775H774.764V3.5716ZM931.942 48.3518L930.844 48.648L931.071 49.4887H931.942V48.3518ZM928.51 40.7332L927.567 41.3684L927.573 41.3773L928.51 40.7332ZM915.401 31.5361L915.084 32.6279L915.092 32.6303L915.1 32.6325L915.401 31.5361ZM888.359 35.2424L887.732 34.2937L887.728 34.2964L888.359 35.2424ZM876.896 49.6558L877.941 50.1055L877.942 50.1028L876.896 49.6558ZM876.759 95.5729L877.811 95.1416L876.759 95.5729ZM888.084 110.124L888.721 109.182L888.084 110.124ZM921.853 112.114L922.335 113.144L922.339 113.142L921.853 112.114ZM931.736 103.397L930.76 102.814L931.736 103.397ZM935.099 90.1507L935.234 89.0219L933.962 88.8698V90.1507H935.099ZM941.414 90.9057V92.0426L941.549 89.7768L941.414 90.9057ZM907.233 90.9057H906.096V92.0426H907.233V90.9057ZM907.233 66.1283V64.9914H906.096V66.1283H907.233ZM967.838 66.1283H968.975V64.9914H967.838V66.1283ZM959.808 117.056L958.832 116.473L958.83 116.477L959.808 117.056ZM937.845 137.715L937.324 136.704L937.322 136.705L937.845 137.715ZM870.445 136.205L871.009 135.218L870.445 136.205ZM846.697 111.359L845.69 111.888L845.691 111.89L846.697 111.359ZM843.334 42.2432L844.395 42.6514L844.396 42.6495L843.334 42.2432ZM857.679 19.4563L856.872 18.6553L856.869 18.6583L857.679 19.4563ZM879.093 5.31736L878.677 4.25931L878.675 4.26011L879.093 5.31736ZM928.099 4.01329L927.739 5.09188L927.741 5.09258L928.099 4.01329ZM946.767 13.8968L946.064 14.7897L946.067 14.7926L946.767 13.8968ZM960.014 29.0652L959.03 29.6343V29.6343L960.014 29.0652ZM966.328 48.3518V49.4887H967.607L967.458 48.2189L966.328 48.3518ZM933.04 48.0556C932.232 45.0635 931.038 42.4034 929.447 40.0891L927.573 41.3773C929.002 43.4557 930.096 45.8747 930.844 48.648L933.04 48.0556ZM929.453 40.0982C927.867 37.7425 925.917 35.7443 923.608 34.1087L922.294 35.9643C924.377 37.4402 926.134 39.2398 927.567 41.3683L929.453 40.0982ZM923.608 34.1087C921.294 32.4696 918.654 31.2493 915.702 30.4396L915.1 32.6325C917.821 33.3786 920.215 34.4919 922.294 35.9643L923.608 34.1087ZM915.718 30.4442C912.764 29.5867 909.544 29.1637 906.067 29.1637V31.4376C909.361 31.4376 912.364 31.8382 915.084 32.6279L915.718 30.4442ZM906.067 29.1637C899.058 29.1637 892.931 30.8598 887.732 34.2938L888.985 36.1911C893.762 33.036 899.439 31.4376 906.067 31.4376V29.1637ZM887.728 34.2964C882.575 37.7317 878.624 42.7238 875.851 49.2089L877.942 50.1028C880.569 43.9589 884.259 39.3421 888.989 36.1884L887.728 34.2964ZM875.852 49.2061C873.076 55.6539 871.71 63.4346 871.71 72.5114H873.984C873.984 63.6515 875.318 56.1951 877.941 50.1055L875.852 49.2061ZM871.71 72.5114C871.71 81.6297 873.029 89.4718 875.707 96.0043L877.811 95.1416C875.274 88.9536 873.984 81.4214 873.984 72.5114H871.71ZM875.707 96.0043C878.387 102.539 882.293 107.581 887.447 111.066L888.721 109.182C883.992 105.985 880.348 101.327 877.811 95.1416L875.707 96.0043ZM887.447 111.066C892.609 114.555 898.835 116.271 906.067 116.271V113.997C899.205 113.997 893.442 112.373 888.721 109.182L887.447 111.066ZM906.067 116.271C912.407 116.271 917.843 115.246 922.335 113.144L921.371 111.084C917.26 113.009 912.172 113.997 906.067 113.997V116.271ZM922.339 113.142C926.868 110.996 930.343 107.945 932.712 103.981L930.76 102.814C928.645 106.354 925.531 109.114 921.366 111.087L922.339 113.142ZM932.712 103.981C935.076 100.025 936.236 95.4014 936.236 90.1507H933.962C933.962 95.0581 932.881 99.2653 930.76 102.814L932.712 103.981ZM934.964 91.2796L941.279 92.0346L941.549 89.7768L935.234 89.0219L934.964 91.2796ZM941.414 89.7688H907.233V92.0426H941.414V89.7688ZM908.37 90.9057V66.1283H906.096V90.9057H908.37ZM907.233 67.2653H967.838V64.9914H907.233V67.2653ZM966.701 66.1283V84.7285H968.975V66.1283H966.701ZM966.701 84.7285C966.701 97.1486 964.061 107.714 958.832 116.473L960.784 117.639C966.263 108.461 968.975 97.4748 968.975 84.7285H966.701ZM958.83 116.477C953.632 125.259 946.47 131.997 937.324 136.704L938.365 138.726C947.888 133.824 955.369 126.789 960.786 117.635L958.83 116.477ZM937.322 136.705C928.219 141.414 917.718 143.785 905.792 143.785V146.059C918.025 146.059 928.894 143.625 938.367 138.725L937.322 136.705ZM905.792 143.785C892.554 143.785 880.972 140.917 871.009 135.218L869.88 137.192C880.234 143.115 892.216 146.059 905.792 146.059V143.785ZM871.009 135.218C861.046 129.519 853.28 121.398 847.702 110.828L845.691 111.89C851.462 122.826 859.527 131.269 869.88 137.192L871.009 135.218ZM847.703 110.83C842.132 100.226 839.323 87.6035 839.323 72.9232H837.049C837.049 87.8935 839.914 100.895 845.69 111.888L847.703 110.83ZM839.323 72.9232C839.323 61.504 841.022 51.4199 844.395 42.6514L842.273 41.8351C838.782 50.9117 837.049 61.281 837.049 72.9232H839.323ZM844.396 42.6495C847.777 33.8131 852.478 26.3547 858.488 20.2542L856.869 18.6583C850.617 25.0037 845.754 32.7366 842.272 41.8369L844.396 42.6495ZM858.485 20.2572C864.553 14.1448 871.559 9.5195 879.511 6.37461L878.675 4.26011C870.429 7.5212 863.159 12.3218 856.872 18.6553L858.485 20.2572ZM879.509 6.37541C887.512 3.22819 896.132 1.64981 905.38 1.64981V-0.624041C895.868 -0.624041 886.963 1.00056 878.677 4.25931L879.509 6.37541ZM905.38 1.64981C913.415 1.64981 920.865 2.8007 927.739 5.09188L928.458 2.93471C921.33 0.558674 913.635 -0.624041 905.38 -0.624041V1.64981ZM927.741 5.09258C934.672 7.38798 940.776 10.6224 946.064 14.7897L947.471 13.0039C941.96 8.66041 935.618 5.30582 928.456 2.93401L927.741 5.09258ZM946.067 14.7926C951.4 18.9603 955.718 23.9062 959.03 29.6343L960.998 28.4962C957.538 22.5104 953.025 17.3441 947.467 13.001L946.067 14.7926ZM959.03 29.6343C962.335 35.3515 964.393 41.631 965.199 48.4846L967.458 48.2189C966.617 41.071 964.465 34.4927 960.998 28.4962L959.03 29.6343ZM966.328 47.2148H931.942V49.4887H966.328V47.2148Z" fill="black"/>
</svg>
