<svg width="375" height="145" viewBox="0 0 375 145" fill="none" xmlns="http://www.w3.org/2000/svg">
<path opacity="0.4" d="M-456.362 143H-457.498V144.137H-456.362V143ZM-456.362 2.43468V1.29775H-457.498V2.43468H-456.362ZM-371.322 6.89598L-371.762 7.94445L-371.76 7.94545L-371.322 6.89598ZM-355.262 19.3876L-356.208 20.0183L-356.204 20.0238L-355.262 19.3876ZM-353.202 52.3326L-352.201 52.8716L-352.199 52.8671L-353.202 52.3326ZM-362.468 62.6966L-363.119 61.7641L-362.468 62.6966ZM-376.127 68.4619L-376.363 67.3498L-377.264 67.5411V68.4619H-376.127ZM-376.127 69.8346H-377.264V70.9179L-376.182 70.9702L-376.127 69.8346ZM-360.409 74.4332L-360.98 75.4163L-360.976 75.4186L-360.409 74.4332ZM-348.741 86.1012L-349.722 86.6769L-349.719 86.6808L-348.741 86.1012ZM-350.114 123.919L-349.161 124.54L-349.159 124.536L-350.114 123.919ZM-366.792 137.921L-366.313 138.952L-366.307 138.949L-366.792 137.921ZM-422.387 115.614H-423.524V116.751H-422.387V115.614ZM-385.118 111.428L-385.824 110.537L-385.83 110.541L-385.118 111.428ZM-382.373 90.4253L-383.331 91.0368L-383.326 91.0443L-382.373 90.4253ZM-389.579 84.3167L-390.063 85.3455L-390.051 85.3512L-389.579 84.3167ZM-422.387 82.1204V80.9835H-423.524V82.1204H-422.387ZM-422.387 60.2257H-423.524V61.3626H-422.387V60.2257ZM-386.971 53.019L-387.9 52.3633L-387.904 52.3695L-387.909 52.3757L-386.971 53.019ZM-389.511 33.4579L-388.796 32.5737L-389.511 33.4579ZM-422.387 29.4084V28.2715H-423.524V29.4084H-422.387ZM-455.225 143V2.43468H-457.498V143H-455.225ZM-456.362 3.5716H-397.747V1.29775H-456.362V3.5716ZM-397.747 3.5716C-387.322 3.5716 -378.674 5.04588 -371.762 7.94444L-370.883 5.84751C-378.155 2.79767 -387.124 1.29775 -397.747 1.29775V3.5716ZM-371.76 7.94545C-364.786 10.851 -359.629 14.8864 -356.208 20.0183L-354.316 18.757C-358.032 13.1818 -363.582 8.88936 -370.885 5.84651L-371.76 7.94545ZM-356.204 20.0238C-352.727 25.1724 -350.976 31.1465 -350.976 37.9878H-348.702C-348.702 30.736 -350.566 24.31 -354.319 18.7514L-356.204 20.0238ZM-350.976 37.9878C-350.976 43.1781 -352.062 47.7723 -354.206 51.7982L-352.199 52.8671C-349.859 48.4736 -348.702 43.5046 -348.702 37.9878H-350.976ZM-354.204 51.7936C-356.36 55.7984 -359.328 59.1191 -363.119 61.7641L-361.818 63.629C-357.739 60.7832 -354.529 57.1946 -352.201 52.8716L-354.204 51.7936ZM-363.119 61.7641C-366.917 64.4141 -371.326 66.28 -376.363 67.3498L-375.891 69.5741C-370.586 68.4475 -365.89 66.4699 -361.818 63.629L-363.119 61.7641ZM-377.264 68.4619V69.8346H-374.99V68.4619H-377.264ZM-376.182 70.9702C-370.685 71.2362 -365.624 72.7186 -360.98 75.4163L-359.838 73.4502C-364.804 70.5655 -370.22 68.9822 -376.072 68.6991L-376.182 70.9702ZM-360.976 75.4186C-356.303 78.108 -352.554 81.8536 -349.722 86.6769L-347.761 85.5256C-350.786 80.3739 -354.815 76.3408 -359.842 73.4478L-360.976 75.4186ZM-349.719 86.6808C-346.912 91.418 -345.485 97.067 -345.485 103.672H-343.212C-343.212 96.7327 -344.713 90.668 -347.763 85.5216L-349.719 86.6808ZM-345.485 103.672C-345.485 111.018 -347.352 117.55 -351.069 123.302L-349.159 124.536C-345.189 118.392 -343.212 111.426 -343.212 103.672H-345.485ZM-351.067 123.299C-354.78 129.001 -360.165 133.538 -367.277 136.893L-366.307 138.949C-358.869 135.441 -353.135 130.643 -349.161 124.54L-351.067 123.299ZM-367.272 136.89C-374.36 140.189 -383.018 141.863 -393.286 141.863V144.137C-382.78 144.137 -373.776 142.425 -366.313 138.952L-367.272 136.89ZM-393.286 141.863H-456.362V144.137H-393.286V141.863ZM-422.387 116.751H-401.385V114.478H-422.387V116.751ZM-401.385 116.751C-393.914 116.751 -388.18 115.344 -384.406 112.314L-385.83 110.541C-389.011 113.094 -394.121 114.478 -401.385 114.478V116.751ZM-384.412 112.319C-380.584 109.286 -378.696 105.051 -378.696 99.7597H-380.97C-380.97 104.443 -382.605 107.987 -385.824 110.537L-384.412 112.319ZM-378.696 99.7597C-378.696 95.9617 -379.588 92.6271 -381.419 89.8063L-383.326 91.0443C-381.771 93.4398 -380.97 96.3281 -380.97 99.7597H-378.696ZM-381.414 89.8138C-383.235 86.9589 -385.814 84.7836 -389.108 83.2822L-390.051 85.3512C-387.121 86.6868 -384.896 88.5839 -383.331 91.0367L-381.414 89.8138ZM-389.095 83.288C-392.393 81.7363 -396.295 80.9835 -400.767 80.9835V83.2573C-396.544 83.2573 -392.989 83.9687 -390.063 85.3454L-389.095 83.288ZM-400.767 80.9835H-422.387V83.2573H-400.767V80.9835ZM-423.524 82.1204V115.614H-421.25V82.1204H-423.524ZM-422.387 61.3626H-403.581V59.0888H-422.387V61.3626ZM-403.581 61.3626C-399.748 61.3626 -396.297 60.7236 -393.25 59.4175L-394.145 57.3275C-396.863 58.4923 -400.001 59.0888 -403.581 59.0888V61.3626ZM-393.25 59.4175C-390.191 58.1068 -387.77 56.1923 -386.034 53.6623L-387.909 52.3757C-389.375 54.5129 -391.438 56.1674 -394.145 57.3275L-393.25 59.4175ZM-386.042 53.6746C-384.24 51.1209 -383.363 48.0689 -383.363 44.5768H-385.637C-385.637 47.6737 -386.408 50.2499 -387.9 52.3633L-386.042 53.6746ZM-383.363 44.5768C-383.363 39.5586 -385.16 35.512 -388.796 32.5737L-390.225 34.3421C-387.18 36.8031 -385.637 40.1691 -385.637 44.5768H-383.363ZM-388.796 32.5737C-392.395 29.6645 -397.182 28.2715 -403.032 28.2715V30.5453C-397.534 30.5453 -393.306 31.8519 -390.225 34.3421L-388.796 32.5737ZM-403.032 28.2715H-422.387V30.5453H-403.032V28.2715ZM-423.524 29.4084V60.2257H-421.25V29.4084H-423.524ZM-233.31 2.43468V1.29775H-234.447V2.43468H-233.31ZM-199.404 2.43468H-198.267V1.29775H-199.404V2.43468ZM-206.886 120.488L-205.93 121.104L-205.928 121.101L-206.886 120.488ZM-227.751 138.47L-227.266 139.498L-227.261 139.496L-227.751 138.47ZM-290.14 138.47L-290.63 139.496L-290.625 139.498L-290.14 138.47ZM-310.937 120.488L-311.896 121.097L-311.895 121.1L-310.937 120.488ZM-318.349 2.43468V1.29775H-319.486V2.43468H-318.349ZM-284.375 2.43468H-283.238V1.29775H-284.375V2.43468ZM-281.218 103.123L-282.212 103.674L-282.207 103.683L-281.218 103.123ZM-272.226 112.045L-271.671 111.053L-272.226 112.045ZM-245.527 112.045L-246.082 111.053L-246.087 111.056L-245.527 112.045ZM-233.31 3.5716H-199.404V1.29775H-233.31V3.5716ZM-200.541 2.43468V93.1021H-198.267V2.43468H-200.541ZM-200.541 93.1021C-200.541 103.393 -202.988 112.302 -207.843 119.874L-205.928 121.101C-200.808 113.116 -198.267 103.768 -198.267 93.1021H-200.541ZM-207.841 119.871C-212.706 127.414 -219.493 133.272 -228.24 137.444L-227.261 139.496C-218.163 135.157 -211.04 129.027 -205.93 121.104L-207.841 119.871ZM-228.236 137.442C-236.98 141.567 -247.172 143.648 -258.843 143.648V145.921C-246.902 145.921 -236.367 143.792 -227.266 139.498L-228.236 137.442ZM-258.843 143.648C-270.652 143.648 -280.913 141.566 -289.655 137.442L-290.625 139.498C-281.523 143.793 -270.918 145.921 -258.843 145.921V143.648ZM-289.651 137.444C-298.397 133.273 -305.16 127.415 -309.979 119.875L-311.895 121.1C-306.83 129.026 -299.729 135.157 -290.63 139.496L-289.651 137.444ZM-309.977 119.878C-314.788 112.306 -317.212 103.395 -317.212 93.1021H-319.486C-319.486 103.766 -316.969 113.112 -311.896 121.097L-309.977 119.878ZM-317.212 93.1021V2.43468H-319.486V93.1021H-317.212ZM-318.349 3.5716H-284.375V1.29775H-318.349V3.5716ZM-285.512 2.43468V90.1507H-283.238V2.43468H-285.512ZM-285.512 90.1507C-285.512 95.1708 -284.421 99.6884 -282.212 103.674L-280.223 102.572C-282.224 98.9616 -283.238 94.8311 -283.238 90.1507H-285.512ZM-282.207 103.683C-279.953 107.664 -276.805 110.786 -272.782 113.038L-271.671 111.053C-275.335 109.003 -278.181 106.178 -280.228 102.563L-282.207 103.683ZM-272.782 113.038C-268.744 115.297 -264.086 116.408 -258.843 116.408V114.134C-263.757 114.134 -268.022 113.095 -271.671 111.053L-272.782 113.038ZM-258.843 116.408C-253.6 116.408 -248.962 115.297 -244.967 113.035L-246.087 111.056C-249.688 113.095 -253.927 114.134 -258.843 114.134V116.408ZM-244.972 113.038C-240.949 110.786 -237.801 107.664 -235.547 103.683L-237.525 102.563C-239.572 106.178 -242.419 109.003 -246.082 111.053L-244.972 113.038ZM-235.547 103.683C-233.289 99.6959 -232.173 95.175 -232.173 90.1507H-234.447C-234.447 94.827 -235.482 98.9541 -237.525 102.563L-235.547 103.683ZM-232.173 90.1507V2.43468H-234.447V90.1507H-232.173ZM-134.472 2.43468H-133.335V1.29775H-134.472V2.43468ZM-134.472 143V144.137H-133.335V143H-134.472ZM-168.446 143H-169.583V144.137H-168.446V143ZM-168.446 2.43468V1.29775H-169.583V2.43468H-168.446ZM-135.609 2.43468V143H-133.335V2.43468H-135.609ZM-134.472 141.863H-168.446V144.137H-134.472V141.863ZM-167.309 143V2.43468H-169.583V143H-167.309ZM-168.446 3.5716H-134.472V1.29775H-168.446V3.5716ZM-103.479 143H-104.616V144.137H-103.479V143ZM-103.479 2.43468V1.29775H-104.616V2.43468H-103.479ZM-69.5049 2.43468H-68.368V1.29775H-69.5049V2.43468ZM-69.5049 115.409H-70.6418V116.545H-69.5049V115.409ZM-11.0275 115.409H-9.89056V114.272H-11.0275V115.409ZM-11.0275 143V144.137H-9.89056V143H-11.0275ZM-102.342 143V2.43468H-104.616V143H-102.342ZM-103.479 3.5716H-69.5049V1.29775H-103.479V3.5716ZM-70.6418 2.43468V115.409H-68.368V2.43468H-70.6418ZM-69.5049 116.545H-11.0275V114.272H-69.5049V116.545ZM-12.1644 115.409V143H-9.89056V115.409H-12.1644ZM-11.0275 141.863H-103.479V144.137H-11.0275V141.863ZM16.2242 143H15.0872V144.137H16.2242V143ZM16.2242 2.43468V1.29775H15.0872V2.43468H16.2242ZM105.107 10.8768L104.564 11.8755L104.569 11.8783L105.107 10.8768ZM129.129 35.0365L128.127 35.5727L128.128 35.5745L129.129 35.0365ZM129.129 110.398L128.127 109.862L128.125 109.865L129.129 110.398ZM105.176 134.626L105.714 135.628L105.717 135.626L105.176 134.626ZM50.1987 114.036H49.0618V115.173H50.1987V114.036ZM86.85 110.055L87.3481 111.077L87.3517 111.075L86.85 110.055ZM99.273 96.9456L98.2426 96.4653L98.241 96.4687L99.273 96.9456ZM99.273 48.489L98.244 48.9724L98.2454 48.9754L99.273 48.489ZM86.7128 35.4483L86.2111 36.4686L86.2213 36.4735L86.7128 35.4483ZM50.1987 31.3988V30.2619H49.0618V31.3988H50.1987ZM68.1812 141.863H16.2242V144.137H68.1812V141.863ZM17.3611 143V2.43468H15.0872V143H17.3611ZM16.2242 3.5716H68.1125V1.29775H16.2242V3.5716ZM68.1125 3.5716C82.2853 3.5716 94.4218 6.35578 104.564 11.8754L105.651 9.87823C95.1102 4.14169 82.5836 1.29775 68.1125 1.29775V3.5716ZM104.569 11.8783C114.756 17.3533 122.603 25.2435 128.127 35.5727L130.132 34.5003C124.4 23.7813 116.232 15.5651 105.645 9.87538L104.569 11.8783ZM128.128 35.5745C133.649 45.8539 136.435 58.1978 136.435 72.6487H138.708C138.708 57.9066 135.866 45.1758 130.131 34.4985L128.128 35.5745ZM136.435 72.6487C136.435 87.1458 133.649 99.5363 128.127 109.862L130.132 110.934C135.866 100.212 138.708 87.4361 138.708 72.6487H136.435ZM128.125 109.865C122.647 120.194 114.822 128.106 104.634 133.627L105.717 135.626C116.303 129.89 124.448 121.651 130.134 110.931L128.125 109.865ZM104.637 133.625C94.4475 139.102 82.3088 141.863 68.1812 141.863V144.137C82.606 144.137 95.1302 141.316 105.714 135.628L104.637 133.625ZM50.1987 115.173H66.8771V112.899H50.1987V115.173ZM66.8771 115.173C74.8702 115.173 81.7087 113.826 87.3481 111.077L86.3519 109.033C81.1013 111.592 74.6245 112.899 66.8771 112.899V115.173ZM87.3517 111.075C93.0973 108.25 97.4148 103.677 100.305 97.4226L98.241 96.4687C95.5489 102.294 91.5844 106.46 86.3484 109.035L87.3517 111.075ZM100.303 97.426C103.237 91.1333 104.665 82.8505 104.665 72.6487H102.391C102.391 82.6714 100.983 90.5866 98.2426 96.4653L100.303 97.426ZM104.665 72.6487C104.665 62.4482 103.237 54.2076 100.301 48.0027L98.2454 48.9754C100.983 54.7588 102.391 62.6246 102.391 72.6487H104.665ZM100.302 48.0057C97.3641 41.7506 92.9982 37.2004 87.2042 34.4231L86.2213 36.4735C91.5005 39.0041 95.5081 43.1476 98.244 48.9724L100.302 48.0057ZM87.2144 34.428C81.5262 31.6313 74.571 30.2619 66.3967 30.2619V32.5357C74.3287 32.5357 80.9177 33.866 86.2111 36.4686L87.2144 34.428ZM66.3967 30.2619H50.1987V32.5357H66.3967V30.2619ZM49.0618 31.3988V114.036H51.3356V31.3988H49.0618ZM201.046 2.43468H202.183V1.29775H201.046V2.43468ZM201.046 143V144.137H202.183V143H201.046ZM167.071 143H165.934V144.137H167.071V143ZM167.071 2.43468V1.29775H165.934V2.43468H167.071ZM199.909 2.43468V143H202.183V2.43468H199.909ZM201.046 141.863H167.071V144.137H201.046V141.863ZM168.208 143V2.43468H165.934V143H168.208ZM167.071 3.5716H201.046V1.29775H167.071V3.5716ZM351.669 2.43468H352.806V1.29775H351.669V2.43468ZM351.669 143V144.137H352.806V143H351.669ZM322.843 143L321.907 143.645L322.246 144.137H322.843V143ZM266.905 61.8729L267.841 61.2276L267.502 60.736H266.905V61.8729ZM266.013 61.8729V60.736H264.876V61.8729H266.013ZM266.013 143V144.137H267.149V143H266.013ZM232.038 143H230.901V144.137H232.038V143ZM232.038 2.43468V1.29775H230.901V2.43468H232.038ZM261.277 2.43468L262.215 1.79342L261.877 1.29775H261.277V2.43468ZM316.597 83.4245L315.658 84.0657L315.997 84.5614H316.597V83.4245ZM317.764 83.4245V84.5614H318.901V83.4245H317.764ZM317.764 2.43468V1.29775H316.627V2.43468H317.764ZM350.533 2.43468V143H352.806V2.43468H350.533ZM351.669 141.863H322.843V144.137H351.669V141.863ZM323.779 142.355L267.841 61.2276L265.969 62.5183L321.907 143.645L323.779 142.355ZM266.905 60.736H266.013V63.0099H266.905V60.736ZM264.876 61.8729V143H267.149V61.8729H264.876ZM266.013 141.863H232.038V144.137H266.013V141.863ZM233.175 143V2.43468H230.901V143H233.175ZM232.038 3.5716H261.277V1.29775H232.038V3.5716ZM260.338 3.07594L315.658 84.0657L317.536 82.7832L262.215 1.79342L260.338 3.07594ZM316.597 84.5614H317.764V82.2875H316.597V84.5614ZM318.901 83.4245V2.43468H316.627V83.4245H318.901ZM317.764 3.5716H351.669V1.29775H317.764V3.5716ZM474.942 48.3518L473.844 48.648L474.071 49.4887H474.942V48.3518ZM471.51 40.7332L470.567 41.3684L470.573 41.3773L471.51 40.7332ZM458.401 31.5361L458.084 32.6279L458.092 32.6303L458.1 32.6325L458.401 31.5361ZM431.359 35.2424L430.732 34.2937L430.728 34.2964L431.359 35.2424ZM419.896 49.6558L420.941 50.1055L420.942 50.1028L419.896 49.6558ZM419.759 95.5729L420.811 95.1416L419.759 95.5729ZM431.084 110.124L431.721 109.182L431.084 110.124ZM464.853 112.114L465.335 113.144L465.339 113.142L464.853 112.114ZM474.736 103.397L473.76 102.814L474.736 103.397ZM478.099 90.1507L478.234 89.0219L476.962 88.8698V90.1507H478.099ZM484.414 90.9057V92.0426L484.549 89.7768L484.414 90.9057ZM450.233 90.9057H449.096V92.0426H450.233V90.9057ZM450.233 66.1283V64.9914H449.096V66.1283H450.233ZM510.838 66.1283H511.975V64.9914H510.838V66.1283ZM502.808 117.056L501.832 116.473L501.83 116.477L502.808 117.056ZM480.845 137.715L480.324 136.704L480.322 136.705L480.845 137.715ZM413.445 136.205L414.009 135.218L413.445 136.205ZM389.697 111.359L388.69 111.888L388.691 111.89L389.697 111.359ZM386.334 42.2432L387.395 42.6514L387.396 42.6495L386.334 42.2432ZM400.679 19.4563L399.872 18.6553L399.869 18.6583L400.679 19.4563ZM422.093 5.31736L421.677 4.25931L421.675 4.26011L422.093 5.31736ZM471.099 4.01329L470.739 5.09188L470.741 5.09258L471.099 4.01329ZM489.767 13.8968L489.064 14.7897L489.067 14.7926L489.767 13.8968ZM503.014 29.0652L502.03 29.6343V29.6343L503.014 29.0652ZM509.328 48.3518V49.4887H510.607L510.458 48.2189L509.328 48.3518ZM476.04 48.0556C475.232 45.0635 474.038 42.4034 472.447 40.0891L470.573 41.3773C472.002 43.4557 473.096 45.8747 473.844 48.648L476.04 48.0556ZM472.453 40.0982C470.867 37.7425 468.917 35.7443 466.608 34.1087L465.294 35.9643C467.377 37.4402 469.134 39.2398 470.567 41.3683L472.453 40.0982ZM466.608 34.1087C464.294 32.4696 461.654 31.2493 458.702 30.4396L458.1 32.6325C460.821 33.3786 463.215 34.4919 465.294 35.9643L466.608 34.1087ZM458.718 30.4442C455.764 29.5867 452.544 29.1637 449.067 29.1637V31.4376C452.361 31.4376 455.364 31.8382 458.084 32.6279L458.718 30.4442ZM449.067 29.1637C442.058 29.1637 435.931 30.8598 430.732 34.2938L431.985 36.1911C436.762 33.036 442.439 31.4376 449.067 31.4376V29.1637ZM430.728 34.2964C425.575 37.7317 421.624 42.7238 418.851 49.2089L420.942 50.1028C423.569 43.9589 427.259 39.3421 431.989 36.1884L430.728 34.2964ZM418.852 49.2061C416.076 55.6539 414.71 63.4346 414.71 72.5114H416.984C416.984 63.6515 418.318 56.1951 420.941 50.1055L418.852 49.2061ZM414.71 72.5114C414.71 81.6297 416.029 89.4718 418.707 96.0043L420.811 95.1416C418.274 88.9536 416.984 81.4214 416.984 72.5114H414.71ZM418.707 96.0043C421.387 102.539 425.293 107.581 430.447 111.066L431.721 109.182C426.992 105.985 423.348 101.327 420.811 95.1416L418.707 96.0043ZM430.447 111.066C435.609 114.555 441.835 116.271 449.067 116.271V113.997C442.205 113.997 436.442 112.373 431.721 109.182L430.447 111.066ZM449.067 116.271C455.407 116.271 460.843 115.246 465.335 113.144L464.371 111.084C460.26 113.009 455.172 113.997 449.067 113.997V116.271ZM465.339 113.142C469.868 110.996 473.343 107.945 475.712 103.981L473.76 102.814C471.645 106.354 468.531 109.114 464.366 111.087L465.339 113.142ZM475.712 103.981C478.076 100.025 479.236 95.4014 479.236 90.1507H476.962C476.962 95.0581 475.881 99.2653 473.76 102.814L475.712 103.981ZM477.964 91.2796L484.279 92.0346L484.549 89.7768L478.234 89.0219L477.964 91.2796ZM484.414 89.7688H450.233V92.0426H484.414V89.7688ZM451.37 90.9057V66.1283H449.096V90.9057H451.37ZM450.233 67.2653H510.838V64.9914H450.233V67.2653ZM509.701 66.1283V84.7285H511.975V66.1283H509.701ZM509.701 84.7285C509.701 97.1486 507.061 107.714 501.832 116.473L503.784 117.639C509.263 108.461 511.975 97.4748 511.975 84.7285H509.701ZM501.83 116.477C496.632 125.259 489.47 131.997 480.324 136.704L481.365 138.726C490.888 133.824 498.369 126.789 503.786 117.635L501.83 116.477ZM480.322 136.705C471.219 141.414 460.718 143.785 448.792 143.785V146.059C461.025 146.059 471.894 143.625 481.367 138.725L480.322 136.705ZM448.792 143.785C435.554 143.785 423.972 140.917 414.009 135.218L412.88 137.192C423.234 143.115 435.216 146.059 448.792 146.059V143.785ZM414.009 135.218C404.046 129.519 396.28 121.398 390.702 110.828L388.691 111.89C394.462 122.826 402.527 131.269 412.88 137.192L414.009 135.218ZM390.703 110.83C385.132 100.226 382.323 87.6035 382.323 72.9232H380.049C380.049 87.8935 382.914 100.895 388.69 111.888L390.703 110.83ZM382.323 72.9232C382.323 61.504 384.022 51.4199 387.395 42.6514L385.273 41.8351C381.782 50.9117 380.049 61.281 380.049 72.9232H382.323ZM387.396 42.6495C390.777 33.8131 395.478 26.3547 401.488 20.2542L399.869 18.6583C393.617 25.0037 388.754 32.7366 385.272 41.8369L387.396 42.6495ZM401.485 20.2572C407.553 14.1448 414.559 9.5195 422.511 6.37461L421.675 4.26011C413.429 7.5212 406.159 12.3218 399.872 18.6553L401.485 20.2572ZM422.509 6.37541C430.512 3.22819 439.132 1.64981 448.38 1.64981V-0.624041C438.868 -0.624041 429.963 1.00056 421.677 4.25931L422.509 6.37541ZM448.38 1.64981C456.415 1.64981 463.865 2.8007 470.739 5.09188L471.458 2.93471C464.33 0.558674 456.635 -0.624041 448.38 -0.624041V1.64981ZM470.741 5.09258C477.672 7.38798 483.776 10.6224 489.064 14.7897L490.471 13.0039C484.96 8.66041 478.618 5.30582 471.456 2.93401L470.741 5.09258ZM489.067 14.7926C494.4 18.9603 498.718 23.9062 502.03 29.6343L503.998 28.4962C500.538 22.5104 496.025 17.3441 490.467 13.001L489.067 14.7926ZM502.03 29.6343C505.335 35.3515 507.393 41.631 508.199 48.4846L510.458 48.2189C509.617 41.071 507.465 34.4927 503.998 28.4962L502.03 29.6343ZM509.328 47.2148H474.942V49.4887H509.328V47.2148Z" fill="black"/>
</svg>
