<svg width="62" height="59" viewBox="0 0 62 59" fill="none" xmlns="http://www.w3.org/2000/svg">
<path fill-rule="evenodd" clip-rule="evenodd" d="M34.1367 0.886715C33.918 0.878902 33.6992 0.890621 33.4805 0.929684L4.30469 6.07812C2.39062 6.41796 1 8.07422 1 10.0156V48.9844C1 50.9258 2.39062 52.5859 4.30469 52.9219L33.4805 58.0703C33.6523 58.1016 33.8281 58.1133 34 58.1133C34.6992 58.1133 35.3828 57.8711 35.9297 57.4102C36.6094 56.8437 37 56.0039 37 55.1133V48.5H58C59.6523 48.5 61 47.1523 61 45.5V13.5C61 11.8477 59.6523 10.5 58 10.5H37V3.88281C37 2.99609 36.6094 2.15625 35.9297 1.58593C35.418 1.15625 34.7891 0.914059 34.1367 0.886715ZM34.1016 2.88672C34.3555 2.91015 34.543 3.03125 34.6406 3.11719C34.7773 3.23047 35 3.48047 35 3.88281V55.1133C35 55.5195 34.7773 55.7695 34.6406 55.8828C34.5078 55.9961 34.2188 56.1719 33.8281 56.1016L4.65234 50.9531C3.69531 50.7852 3 49.957 3 48.9844V10.0156C3 9.04297 3.69531 8.21484 4.65234 8.04687L33.8281 2.89844C33.9258 2.8789 34.0156 2.8789 34.1016 2.88672ZM37 12.5H58C58.5508 12.5 59 12.9492 59 13.5V19.8945L42.5508 28.8711C41.9453 29.1992 41.2266 29.1953 40.625 28.8633L37 26.8633V12.5ZM19 18.5C15.6914 18.5 13 21.1914 13 24.5V34.5C13 37.8086 15.6914 40.5 19 40.5C22.3086 40.5 25 37.8086 25 34.5V24.5C25 21.1914 22.3086 18.5 19 18.5ZM19 20.5C21.207 20.5 23 22.293 23 24.5V34.5C23 36.707 21.207 38.5 19 38.5C16.793 38.5 15 36.707 15 34.5V24.5C15 22.293 16.793 20.5 19 20.5ZM59 22.1719V45.5C59 46.0508 58.5508 46.5 58 46.5H37V44.5C37.5547 44.5 38 44.0508 38 43.5V41.5C38 40.9492 37.5547 40.5 37 40.5V29.1484L39.6602 30.6133C40.2656 30.9492 40.9297 31.1133 41.5938 31.1133C42.25 31.1133 42.9062 30.9531 43.5078 30.625L59 22.1719ZM42 40.5C41.4453 40.5 41 40.9492 41 41.5V43.5C41 44.0508 41.4453 44.5 42 44.5C42.5547 44.5 43 44.0508 43 43.5V41.5C43 40.9492 42.5547 40.5 42 40.5ZM47 40.5C46.4453 40.5 46 40.9492 46 41.5V43.5C46 44.0508 46.4453 44.5 47 44.5C47.5547 44.5 48 44.0508 48 43.5V41.5C48 40.9492 47.5547 40.5 47 40.5ZM52 40.5C51.4453 40.5 51 40.9492 51 41.5V43.5C51 44.0508 51.4453 44.5 52 44.5C52.5547 44.5 53 44.0508 53 43.5V41.5C53 40.9492 52.5547 40.5 52 40.5ZM57 40.5C56.4453 40.5 56 40.9492 56 41.5V43.5C56 44.0508 56.4453 44.5 57 44.5C57.5547 44.5 58 44.0508 58 43.5V41.5C58 40.9492 57.5547 40.5 57 40.5Z" fill="black"/>
<path d="M33.4805 0.929684L33.5674 1.42208L33.5684 1.4219L33.4805 0.929684ZM4.30469 6.07812L4.2178 5.58573L4.21728 5.58582L4.30469 6.07812ZM4.30469 52.9219L4.39158 52.4295L4.39112 52.4294L4.30469 52.9219ZM33.4805 58.0703L33.5699 57.5784L33.5674 57.5779L33.4805 58.0703ZM35.9297 57.4102L35.6096 57.026L35.6075 57.0278L35.9297 57.4102ZM37 48.5V48H36.5V48.5H37ZM37 10.5H36.5V11H37V10.5ZM35.9297 1.58593L35.6082 1.96884L35.6083 1.96896L35.9297 1.58593ZM34.6406 3.11719L34.3103 3.49254L34.3159 3.49745L34.3216 3.5022L34.6406 3.11719ZM34.6406 55.8828L34.3216 55.4978L34.3162 55.5024L34.6406 55.8828ZM33.8281 56.1016L33.9167 55.6095L33.915 55.6092L33.8281 56.1016ZM4.65234 50.9531L4.73923 50.4607L4.73878 50.4607L4.65234 50.9531ZM4.65234 8.04687L4.73878 8.53935L4.73923 8.53927L4.65234 8.04687ZM33.8281 2.89844L33.915 3.39096L33.9262 3.38873L33.8281 2.89844ZM37 12.5V12H36.5V12.5H37ZM59 19.8945L59.2395 20.3334L59.5 20.1913V19.8945H59ZM42.5508 28.8711L42.789 29.3107L42.7903 29.31L42.5508 28.8711ZM40.625 28.8633L40.8666 28.4255L40.8665 28.4255L40.625 28.8633ZM37 26.8633H36.5V27.1585L36.7585 27.3011L37 26.8633ZM59 22.1719H59.5V21.3295L58.7605 21.733L59 22.1719ZM37 46.5H36.5V47H37V46.5ZM37 44.5V44H36.5V44.5H37ZM37 40.5H36.5V41H37V40.5ZM37 29.1484L37.2412 28.7105L36.5 28.3023V29.1484H37ZM39.6602 30.6133L39.9027 30.1761L39.9013 30.1753L39.6602 30.6133ZM43.5078 30.625L43.7472 31.0639L43.7473 31.0639L43.5078 30.625ZM34.1546 0.387034C33.906 0.378157 33.6513 0.391261 33.3926 0.43747L33.5684 1.4219C33.7471 1.38998 33.9299 1.37965 34.1189 1.3864L34.1546 0.387034ZM33.3936 0.437291L4.2178 5.58573L4.39158 6.57051L33.5674 1.42208L33.3936 0.437291ZM4.21728 5.58582C2.06518 5.96793 0.5 7.83113 0.5 10.0156H1.5C1.5 8.3173 2.71607 6.868 4.3921 6.57042L4.21728 5.58582ZM0.5 10.0156V48.9844H1.5V10.0156H0.5ZM0.5 48.9844C0.5 51.1681 2.06456 53.0363 4.21825 53.4143L4.39112 52.4294C2.71669 52.1355 1.5 50.6835 1.5 48.9844H0.5ZM4.2178 53.4143L33.3936 58.5627L33.5674 57.5779L4.39158 52.4295L4.2178 53.4143ZM33.391 58.5622C33.5995 58.6001 33.8063 58.6133 34 58.6133V57.6133C33.85 57.6133 33.7052 57.603 33.5699 57.5784L33.391 58.5622ZM34 58.6133C34.815 58.6133 35.6132 58.3308 36.2519 57.7925L35.6075 57.0278C35.1524 57.4114 34.5835 57.6133 34 57.6133V58.6133ZM36.2498 57.7943C37.0447 57.1318 37.5 56.1507 37.5 55.1133H36.5C36.5 55.8571 36.1741 56.5556 35.6096 57.026L36.2498 57.7943ZM37.5 55.1133V48.5H36.5V55.1133H37.5ZM37 49H58V48H37V49ZM58 49C59.9285 49 61.5 47.4285 61.5 45.5H60.5C60.5 46.8762 59.3762 48 58 48V49ZM61.5 45.5V13.5H60.5V45.5H61.5ZM61.5 13.5C61.5 11.5715 59.9285 10 58 10V11C59.3762 11 60.5 12.1238 60.5 13.5H61.5ZM58 10H37V11H58V10ZM37.5 10.5V3.88281H36.5V10.5H37.5ZM37.5 3.88281C37.5 2.84863 37.0442 1.86844 36.2511 1.20291L35.6083 1.96896C36.1745 2.44405 36.5 3.14355 36.5 3.88281H37.5ZM36.2512 1.20302C35.6552 0.702575 34.9207 0.419138 34.1577 0.387154L34.1158 1.38628C34.6574 1.40898 35.1807 1.60992 35.6082 1.96884L36.2512 1.20302ZM34.0556 3.3846C34.1756 3.39568 34.2675 3.45486 34.3103 3.49254L34.9709 2.74183C34.8185 2.60764 34.5353 2.42463 34.1475 2.38883L34.0556 3.3846ZM34.3216 3.5022C34.3935 3.56177 34.5 3.68379 34.5 3.88281H35.5C35.5 3.27715 35.1612 2.89917 34.9596 2.73217L34.3216 3.5022ZM34.5 3.88281V55.1133H35.5V3.88281H34.5ZM34.5 55.1133C34.5 55.3172 34.3924 55.4391 34.3216 55.4978L34.9596 56.2678C35.1623 56.0999 35.5 55.7218 35.5 55.1133H34.5ZM34.3162 55.5024C34.2488 55.5599 34.1068 55.6437 33.9167 55.6095L33.7395 56.5937C34.3307 56.7001 34.7668 56.4323 34.9651 56.2632L34.3162 55.5024ZM33.915 55.6092L4.73923 50.4607L4.56546 51.4455L33.7412 56.594L33.915 55.6092ZM4.73878 50.4607C4.02108 50.3347 3.5 49.7144 3.5 48.9844H2.5C2.5 50.1996 3.36954 51.2356 4.56591 51.4456L4.73878 50.4607ZM3.5 48.9844V10.0156H2.5V48.9844H3.5ZM3.5 10.0156C3.5 9.28556 4.02108 8.66531 4.73878 8.53935L4.56591 7.5544C3.36954 7.76438 2.5 8.80037 2.5 10.0156H3.5ZM4.73923 8.53927L33.915 3.39083L33.7412 2.40604L4.56546 7.55448L4.73923 8.53927ZM33.9262 3.38873C33.9637 3.38121 34.0031 3.37982 34.0563 3.38466L34.1468 2.38877C34.0282 2.37798 33.8878 2.37659 33.7301 2.40815L33.9262 3.38873ZM37 13H58V12H37V13ZM58 13C58.2746 13 58.5 13.2254 58.5 13.5H59.5C59.5 12.6731 58.8269 12 58 12V13ZM58.5 13.5V19.8945H59.5V13.5H58.5ZM58.7605 19.4556L42.3113 28.4322L42.7903 29.31L59.2395 20.3334L58.7605 19.4556ZM42.3125 28.4315C41.8573 28.6782 41.3194 28.6754 40.8666 28.4255L40.3834 29.301C41.1337 29.7152 42.0333 29.7202 42.789 29.3107L42.3125 28.4315ZM40.8665 28.4255L37.2415 26.4255L36.7585 27.3011L40.3835 29.3011L40.8665 28.4255ZM37.5 26.8633V12.5H36.5V26.8633H37.5ZM19 18C15.4153 18 12.5 20.9153 12.5 24.5H13.5C13.5 21.4675 15.9675 19 19 19V18ZM12.5 24.5V34.5H13.5V24.5H12.5ZM12.5 34.5C12.5 38.0847 15.4153 41 19 41V40C15.9675 40 13.5 37.5325 13.5 34.5H12.5ZM19 41C22.5847 41 25.5 38.0847 25.5 34.5H24.5C24.5 37.5325 22.0325 40 19 40V41ZM25.5 34.5V24.5H24.5V34.5H25.5ZM25.5 24.5C25.5 20.9153 22.5847 18 19 18V19C22.0325 19 24.5 21.4675 24.5 24.5H25.5ZM19 21C20.9309 21 22.5 22.5691 22.5 24.5H23.5C23.5 22.0168 21.4832 20 19 20V21ZM22.5 24.5V34.5H23.5V24.5H22.5ZM22.5 34.5C22.5 36.4309 20.9309 38 19 38V39C21.4832 39 23.5 36.9832 23.5 34.5H22.5ZM19 38C17.0691 38 15.5 36.4309 15.5 34.5H14.5C14.5 36.9832 16.5168 39 19 39V38ZM15.5 34.5V24.5H14.5V34.5H15.5ZM15.5 24.5C15.5 22.5691 17.0691 21 19 21V20C16.5168 20 14.5 22.0168 14.5 24.5H15.5ZM58.5 22.1719V45.5H59.5V22.1719H58.5ZM58.5 45.5C58.5 45.7746 58.2746 46 58 46V47C58.8269 47 59.5 46.3269 59.5 45.5H58.5ZM58 46H37V47H58V46ZM37.5 46.5V44.5H36.5V46.5H37.5ZM37 45C37.8321 45 38.5 44.3257 38.5 43.5H37.5C37.5 43.7759 37.2773 44 37 44V45ZM38.5 43.5V41.5H37.5V43.5H38.5ZM38.5 41.5C38.5 40.6744 37.8321 40 37 40V41C37.2773 41 37.5 41.2241 37.5 41.5H38.5ZM37.5 40.5V29.1484H36.5V40.5H37.5ZM36.7588 29.5864L39.419 31.0513L39.9013 30.1753L37.2412 28.7105L36.7588 29.5864ZM39.4176 31.0505C40.0991 31.4286 40.8469 31.6133 41.5938 31.6133V30.6133C41.0125 30.6133 40.4322 30.4698 39.9027 30.1761L39.4176 31.0505ZM41.5938 31.6133C42.3319 31.6133 43.0707 31.433 43.7472 31.0639L43.2684 30.1861C42.7418 30.4733 42.1681 30.6133 41.5938 30.6133V31.6133ZM43.7473 31.0639L59.2395 22.6108L58.7605 21.733L43.2683 30.1861L43.7473 31.0639ZM42 40C41.1679 40 40.5 40.6744 40.5 41.5H41.5C41.5 41.2241 41.7227 41 42 41V40ZM40.5 41.5V43.5H41.5V41.5H40.5ZM40.5 43.5C40.5 44.3256 41.1679 45 42 45V44C41.7227 44 41.5 43.7759 41.5 43.5H40.5ZM42 45C42.8321 45 43.5 44.3256 43.5 43.5H42.5C42.5 43.7759 42.2773 44 42 44V45ZM43.5 43.5V41.5H42.5V43.5H43.5ZM43.5 41.5C43.5 40.6744 42.8321 40 42 40V41C42.2773 41 42.5 41.2241 42.5 41.5H43.5ZM47 40C46.1679 40 45.5 40.6744 45.5 41.5H46.5C46.5 41.2241 46.7227 41 47 41V40ZM45.5 41.5V43.5H46.5V41.5H45.5ZM45.5 43.5C45.5 44.3256 46.1679 45 47 45V44C46.7227 44 46.5 43.7759 46.5 43.5H45.5ZM47 45C47.8321 45 48.5 44.3256 48.5 43.5H47.5C47.5 43.7759 47.2773 44 47 44V45ZM48.5 43.5V41.5H47.5V43.5H48.5ZM48.5 41.5C48.5 40.6744 47.8321 40 47 40V41C47.2773 41 47.5 41.2241 47.5 41.5H48.5ZM52 40C51.1679 40 50.5 40.6744 50.5 41.5H51.5C51.5 41.2241 51.7227 41 52 41V40ZM50.5 41.5V43.5H51.5V41.5H50.5ZM50.5 43.5C50.5 44.3256 51.1679 45 52 45V44C51.7227 44 51.5 43.7759 51.5 43.5H50.5ZM52 45C52.8321 45 53.5 44.3256 53.5 43.5H52.5C52.5 43.7759 52.2773 44 52 44V45ZM53.5 43.5V41.5H52.5V43.5H53.5ZM53.5 41.5C53.5 40.6744 52.8321 40 52 40V41C52.2773 41 52.5 41.2241 52.5 41.5H53.5ZM57 40C56.1679 40 55.5 40.6744 55.5 41.5H56.5C56.5 41.2241 56.7227 41 57 41V40ZM55.5 41.5V43.5H56.5V41.5H55.5ZM55.5 43.5C55.5 44.3256 56.1679 45 57 45V44C56.7227 44 56.5 43.7759 56.5 43.5H55.5ZM57 45C57.8321 45 58.5 44.3256 58.5 43.5H57.5C57.5 43.7759 57.2773 44 57 44V45ZM58.5 43.5V41.5H57.5V43.5H58.5ZM58.5 41.5C58.5 40.6744 57.8321 40 57 40V41C57.2773 41 57.5 41.2241 57.5 41.5H58.5Z" fill="#0582FD"/>
</svg>
