<svg width="210" height="210" viewBox="0 0 210 210" fill="none" xmlns="http://www.w3.org/2000/svg">
<mask id="mask0_0_19" style="mask-type:luminance" maskUnits="userSpaceOnUse" x="0" y="0" width="210" height="210">
<rect width="210" height="210" fill="white"/>
</mask>
<g mask="url(#mask0_0_19)">
<path fill-rule="evenodd" clip-rule="evenodd" d="M103.95 73.5C103.95 70.3105 104.052 67.5882 104.258 65.3329C104.463 63.0776 104.71 61.95 105 61.95C105.29 61.95 105.537 63.0776 105.742 65.3329C105.947 67.5882 106.05 70.3105 106.05 73.5C106.05 76.6894 105.947 79.4118 105.742 81.6671C105.537 83.9223 105.29 85.05 105 85.05C104.71 85.05 104.463 83.9223 104.258 81.6671C104.052 79.4118 103.95 76.6894 103.95 73.5Z" fill="#0582FD"/>
<path fill-rule="evenodd" clip-rule="evenodd" d="M119.841 77.1952C121.435 74.4331 122.885 72.1267 124.191 70.2761C125.496 68.4255 126.274 67.5726 126.525 67.7176C126.776 67.8626 126.427 68.9629 125.477 71.0185C124.526 73.0742 123.254 75.4831 121.659 78.2452C120.065 81.0073 118.615 83.3137 117.309 85.1643C116.004 87.0149 115.226 87.8678 114.975 87.7228C114.724 87.5778 115.073 86.4775 116.023 84.4219C116.974 82.3662 118.246 79.9573 119.841 77.1952Z" fill="#0582FD"/>
<path fill-rule="evenodd" clip-rule="evenodd" d="M131.755 88.3407C134.517 86.7459 136.926 85.4735 138.982 84.5234C141.037 83.5734 142.137 83.2239 142.282 83.475C142.427 83.7261 141.575 84.5042 139.724 85.8094C137.873 87.1146 135.567 88.5646 132.805 90.1593C130.043 91.754 127.634 93.0264 125.578 93.9765C123.523 94.9266 122.422 95.2761 122.277 95.025C122.132 94.7739 122.985 93.9957 124.836 92.6905C126.686 91.3853 128.993 89.9354 131.755 88.3407Z" fill="#0582FD"/>
<path fill-rule="evenodd" clip-rule="evenodd" d="M136.5 103.95C139.689 103.95 142.412 104.052 144.667 104.258C146.922 104.463 148.05 104.71 148.05 105C148.05 105.29 146.922 105.537 144.667 105.742C142.412 105.947 139.689 106.05 136.5 106.05C133.311 106.05 130.588 105.947 128.333 105.742C126.078 105.537 124.95 105.29 124.95 105C124.95 104.71 126.078 104.463 128.333 104.258C130.588 104.052 133.311 103.95 136.5 103.95Z" fill="#0582FD"/>
<path fill-rule="evenodd" clip-rule="evenodd" d="M132.805 119.841C135.567 121.435 137.873 122.885 139.724 124.191C141.575 125.496 142.427 126.274 142.282 126.525C142.137 126.776 141.037 126.427 138.982 125.477C136.926 124.526 134.517 123.254 131.755 121.659C128.993 120.065 126.686 118.615 124.836 117.309C122.985 116.004 122.132 115.226 122.277 114.975C122.422 114.724 123.523 115.073 125.578 116.023C127.634 116.974 130.043 118.246 132.805 119.841Z" fill="#0582FD"/>
<path fill-rule="evenodd" clip-rule="evenodd" d="M121.659 131.755C123.254 134.517 124.526 136.926 125.477 138.982C126.427 141.037 126.776 142.137 126.525 142.282C126.274 142.427 125.496 141.575 124.191 139.724C122.885 137.873 121.435 135.567 119.841 132.805C118.246 130.043 116.974 127.634 116.023 125.578C115.073 123.523 114.724 122.422 114.975 122.277C115.226 122.132 116.004 122.985 117.309 124.836C118.615 126.686 120.065 128.993 121.659 131.755Z" fill="#0582FD"/>
<path fill-rule="evenodd" clip-rule="evenodd" d="M106.05 136.5C106.05 139.689 105.947 142.412 105.742 144.667C105.537 146.922 105.29 148.05 105 148.05C104.71 148.05 104.463 146.922 104.258 144.667C104.052 142.412 103.95 139.689 103.95 136.5C103.95 133.311 104.052 130.588 104.258 128.333C104.463 126.078 104.71 124.95 105 124.95C105.29 124.95 105.537 126.078 105.742 128.333C105.947 130.588 106.05 133.311 106.05 136.5Z" fill="#0582FD"/>
<path fill-rule="evenodd" clip-rule="evenodd" d="M90.1593 132.805C88.5646 135.567 87.1146 137.873 85.8094 139.724C84.5042 141.575 83.7261 142.427 83.475 142.282C83.2239 142.137 83.5734 141.037 84.5234 138.982C85.4735 136.926 86.7459 134.517 88.3407 131.755C89.9354 128.993 91.3853 126.686 92.6905 124.836C93.9957 122.985 94.7739 122.132 95.025 122.277C95.2761 122.422 94.9266 123.523 93.9765 125.578C93.0264 127.634 91.754 130.043 90.1593 132.805Z" fill="#0582FD"/>
<path fill-rule="evenodd" clip-rule="evenodd" d="M78.2452 121.659C75.4831 123.254 73.0742 124.526 71.0185 125.477C68.9629 126.427 67.8626 126.776 67.7176 126.525C67.5726 126.274 68.4255 125.496 70.2761 124.191C72.1267 122.885 74.4331 121.435 77.1952 119.841C79.9573 118.246 82.3662 116.974 84.4219 116.023C86.4775 115.073 87.5778 114.724 87.7228 114.975C87.8678 115.226 87.0149 116.004 85.1643 117.309C83.3137 118.615 81.0073 120.065 78.2452 121.659Z" fill="#0582FD"/>
<path fill-rule="evenodd" clip-rule="evenodd" d="M73.5 106.05C70.3105 106.05 67.5882 105.947 65.3329 105.742C63.0776 105.537 61.95 105.29 61.95 105C61.95 104.71 63.0776 104.463 65.3329 104.258C67.5882 104.052 70.3105 103.95 73.5 103.95C76.6894 103.95 79.4118 104.052 81.6671 104.258C83.9223 104.463 85.05 104.71 85.05 105C85.05 105.29 83.9223 105.537 81.6671 105.742C79.4118 105.947 76.6894 106.05 73.5 106.05Z" fill="#0582FD"/>
<path fill-rule="evenodd" clip-rule="evenodd" d="M77.1952 90.1593C74.4331 88.5646 72.1267 87.1146 70.2761 85.8094C68.4255 84.5042 67.5726 83.7261 67.7176 83.475C67.8626 83.2239 68.9629 83.5734 71.0185 84.5234C73.0742 85.4735 75.4831 86.7459 78.2452 88.3407C81.0073 89.9354 83.3137 91.3853 85.1643 92.6905C87.015 93.9957 87.8678 94.7739 87.7228 95.025C87.5778 95.2761 86.4775 94.9266 84.4219 93.9765C82.3662 93.0264 79.9573 91.754 77.1952 90.1593Z" fill="#0582FD"/>
<path fill-rule="evenodd" clip-rule="evenodd" d="M88.3406 78.2452C86.7459 75.4831 85.4735 73.0742 84.5234 71.0185C83.5734 68.9629 83.2239 67.8626 83.475 67.7176C83.7261 67.5726 84.5042 68.4255 85.8094 70.2761C87.1146 72.1267 88.5646 74.4331 90.1593 77.1952C91.754 79.9573 93.0264 82.3662 93.9765 84.4219C94.9266 86.4775 95.2761 87.5778 95.025 87.7228C94.7739 87.8678 93.9957 87.0149 92.6905 85.1643C91.3853 83.3137 89.9354 81.0073 88.3406 78.2452Z" fill="#0582FD"/>
</g>
</svg>
