<svg width="375" height="338" viewBox="0 0 375 338" fill="none" xmlns="http://www.w3.org/2000/svg">
<path fill-rule="evenodd" clip-rule="evenodd" d="M-20 11.5017C-20 11.5017 61.6 -26.8373 155.95 62.6204L228.147 122.925C249.598 140.842 279.184 145.066 306.188 137.856C349.417 126.314 413.148 117.386 439 154.634V351.441L403.3 377H28.45L-20 351.441V11.5017Z" fill="#F0F0FD"/>
<path fill-rule="evenodd" clip-rule="evenodd" d="M-26.5868 55.2357C-19.2745 35.2492 4.99988 29.1175 21.8282 42.1458L94.9208 98.733C114.361 113.783 138.663 121.145 163.187 119.412L247.626 113.445C262.006 112.429 276.437 114.534 289.928 119.616L407.237 163.809C430.295 172.495 445.698 194.396 446.078 219.033L448 343.958C448 343.958 151.419 389.468 65.1275 372.296C34.5056 366.202 9.08868 356.756 -11.1233 343.958C-98.8125 288.435 -53.6435 129.19 -26.5868 55.2357Z" fill="#E6E5FF"/>
</svg>
